/* XPM */
static const char * vdc_intro_dither_xpm[] = {
"128 64 14 1",
" 	c #000000",
".	c #0000AA",
"+	c #AA0000",
"@	c #555555",
"#	c #5555FF",
"$	c #AA5500",
"%	c #00AA00",
"&	c #FF5555",
"*	c #00AAAA",
"=	c #AAAAAA",
"-	c #55FF55",
";	c #55FFFF",
">	c #FFFF55",
",	c #FFFFFF",
"..............................++........+++++++...++++...++.........++++++++...+++++++++.......++++.............................",
".......................+++...++++......+++++&+++..+$+&..+$++.......+$+&+$+&++..+$+&+$+&++....++$+&++$...........................",
"....................+++$+&+.+$+&++.....+&+&+++&++.&+&+  $+&+$......$+&+&+&+$&+.&+&+&+&+$& ...$&+&+$+&+$...++++..................",
".++++......+$++$++$+$&+&++$+&++$+&+$...$++$+   $+&.$+$& $+&$& .....&+$+    +$& $+$+        .... +&+&+&+$.++&++$...++............",
"++++++..$+$+&+&+&+&+++&+$+&++&+&+$+&...+&+&        &$+$ &$+&   ....$&$      &+  &$&        .... $&$$&    &++&+....$+$+..........",
"+&+&+&+.+&+&+$+&+$+&$&+&+&+ $+&+&+&+$ .$+&+   ...   &&$&$&$$   ....$&$   ...$&  $&$  ...........$&$&$    +&$+&   +&+&+..+++.....",
"+$++&+$+.$&+&$&+&$&+$+&$+   &$$&  $&+&..&$$  ........$&$&$    .....$&$  ....&$  &$&  ...........&$&$   .$&+&$   .$&$+  $+&++++..",
"$+&+$+&+ .$&$+&$$+&  &$&$   $&+$   $&$$.$+&$ ........$&$&     .....&$&  ....$&  $&$$&$..........$&$&   .$&$$    $&+&  &+++&+&$+$",
"+&+&+&+&$ .$&$$&$&   $+&$  ..$&$& ..$&+ .&$&$.........&$&   .......$&$  ....&$  &$&$&$..........&$&$  ..&$&$   .&$$&  +&$+&$+&+&",
"$$$+ $$+&+.. &$&$$   .&$&$ ..&$&$ ..&$&$ $&$& ........&>$>$........&>$  ....&>  $>$>$>  ........$>$>  .$&$&   .$&$&  $$+&$+&+$&+",
".&+&    $&$.. $&$&$ ..$&$& ..$&$&$&..$&$ .&$$& .......$>$&&>.......$&>& ....$&  >$&     ........&$>$  .&$&$&$ .&$&   $&$&    &$$",
".$&$$ . &$&$...&$&$&...$&$& ..$&$&$..$&$& $&$& ...&$..>$&>$$>......>$>$>....>$  $>$     ........>$&>  .$&$&$&&$&$$  $&$&      $&",
"..$&$&...$&$&...$&$& ..&$&$ .&$&$&$&$&$&$ .$&$$ ..$&$.&>$>>&$ .....&>$>$ ..>$>  >$>  ..........$>&>   &>$>$@$>$>&>  $&$    .... ",
"..$&$&$...$&$$...&$&$ ..$&$& $&$&$>$&$>$&$ &$&&$&$&$&@$>> $>>& .....>$>&>&>$>$  &>$  ..........>$>$   $&$&    &$$  &$&$&$&......",
"...$&$& &$&$&$&..$>$> ..>$>$ @.$>$&$@ $&$>$>$>$>$>$>$ >$>  >$> .....>&>$>>$>&@  >$>  .........>$>>>  $>$>$   $>&>  $&$&$&$$&....",
"...&$&$$&$&$&$& ..&$&$ ..&$&$ . $&>$   $>$& $&$&$&$&   >$  >>>  .....>>>$>>>    >>>  .........>>$>   >$>$   .>$>  $>$> @$>$>$&..",
"...$&$>$&$>$&$>$ .>$>$ ..$>$> ..>$$&$ ..&$>  >$>$>     .   ..   ......         ...   ...........    $>&>    >$>   &$&$     &$@..",
"....>$&$>$&$>$&$ ..&$>& ..&>$  .$>&>$ ..>$&  .        ...  ..   .......       ....   ...........    ..>$   >$>$  $>$>   ..      ",
"....$&$&$&$>$&$>$ .>$&> ..$&>$ ..$>$>& .&>   ..     ..................................................    .>&>>  >$>$>  .....  .",
"...&>$>$>$>$& &$>$..>$$> .@$>&>..&>$&> ...   ...............######..#####....####...##..................  ..>$  $>&>$&>$........",
"..$>$&$>$&$   @$&& ..>&$>..>$>$ ...     ..  ..........####...  #   ##    #..#.   #... ###....................   >$>$>>$>>$>$....",
"...&>  &>$>    >$>  .$>>$ ..&>&  ..     ......###..###.    ....# ..## .... .# .... ....# #..##................  ..>>$>>$>>&>....",
"....   $>$&> ...$>$ ..>$>  .>$   ..........###. # .#   ........# ...#####...# .........# . ..###..................   >$>$>>>  ..",
".....  >$>$>$...>$>&..>&>$ ...   ..........#   .# .# ..........##....    #..##.........# .....# #...................          ..",
"........>$>$> ...&>$>..>$@ ...  ...........# ...# .######......## .##....# .## ........# .....# . .....................       ..",
"........&>$>$  ..>$>$>..>   ...............###### .##     .....## .## ...# .## ..#.....# .....# ................................",
".........>>$   ...>$>$ ..  ................##     .## .........## ..#####. ..##### .#####.....# ................................",
"..........>    ....>>>> .. ................## .....#######......  ...     ....     ..   ##..####................................",
"...........   ......$>$ ...................## ......       ....######....####..########..  ..  ##...............................",
"............ ........    ..................## .######...#####..#     #..#.   #..  #     .####...  ..............................",
"......................   ...................  .#    # .#.    #.# ....# .# ...# ...# ....#.   #..................................",
"...............................................# ...# .# ....# # ....# .# ...# ...# ....# .... .................................",
"...............................................# ...# .# ....# ######. .##...# ...##.....####...................................",
"...............................................#######.##....# ##    #..## ..# ...## .....   #..................................",
"...............................................##    # ## ...# ## ...# .## ..# ...## ...##...# .................................",
"...............................................## ...# ## .##. ######. ..####. ...## ...## ..# .................................",
"...............................................## ...# .###.  ..      ....    .....  ....####. .................................",
"................................................  .... ..   ..............................    ..................................",
"................................................................................................................................",
"................................................................................................................................",
".......      .    ............................................................    .........................    .................",
"...... $$++   $+$$  ......    ............................................... $->$ ....................... ==== ................",
"...... $++= $$ $+$ $ .... @=@ .............................................. $,,--$ ....  ..  ........... =,,,,= ...............",
"...... +++= >@ $$+ $     @#  ...............    ............................ %>,  $ ... , .. , .......... =,,  @ ...............",
"...... +=,$ -$ @+$$  $+ @=@== ............. $$@+ ........................... $- ,-$ ... , .. = .......... == ,,= ...............",
"....... $  $++ $$+$ .         ............ $ $@$  ........................... $,>-$ ... = .. = ........... @=,,@ ...............",
".......  $%++ $$+$+ ...................... $$$@$ $ ...........................  @$- .... =  = .............  @@; ...............",
"........ $++ $$++++      ..  ............. $$ $> =$   ......................... ->$ ..... =@ ............... === ...............",
"........     $+++=+ @ @= . @@ ............ $$$>>+>= .#    ......................       ...  .................       ....  ......",
"......... $$ +++=,+ @  @@  @#@ ........... $$>> $== @. @ @      .................. =@=@   .  .................. $%$@ .. ,= .....",
"......... +$ ++=,,+ @ @     =@ ............ $$ $== #* =>@=  === .............  .. === == = = ................. $->%$%  ,@@# ....",
"......... $+$+=,,,+ = +$$  @  = ............ $$ $ =* =@+  $=   ............. =   =@;,, =@ = = ............... $-,,>@$$ , == ....",
".......... $$+=,,=+ = +++$  . @= ............   =#**#   >$ $ ...............   @ =@,  , @     ............... %>,,=$%  , == ....",
".......... +$+==&&$ = +++$ ... @# ............ **,*  # $=>  ................ =   @#=  , @ ................... $%>$->%  = =# ....",
".......... $ $+++$ @= ==+$ .... @ ............. *,*#**#      ...............   . @@=,,=@. ................... $$%>-$$- =@ = ....",
"...........       @@ $$$$$ ....   ............. #*****  $$ = .............. =@ .. @*@=.@   ................... %$$-$% . =* .....",
"........... $$+$ .  @$     .....................  #*# $@  @@ ............. =  = .. @@@@   . ................... $%$% ...  ......",
"............ +=+ ...   @ @@ ......................   @$$    ............. = .. = ..     .  . ...................     ...........",
"............. +=$ ... @= @#  .    ................. $$$ ................. , .. , ...  ... .* ...................   =  ..........",
"..............  $       .     @=@ ................. $   ................. , .. , .. .  .  .* .................. =@ , @ .........",
"................ =+ +==+  === =  .................. $  @ .................  ..  ... .*   .*@ ................. =@= , == ........",
"................ ++   ++ @=    ..................... @@= .......................... .*#@#*# .................. @;====== ........",
".................   ..     == ......................    ............................ .**** .................... ==,,,= .........",
"...........................   .......................................................     ......................      .........."};
